<?xml version="1.0" encoding="UTF-8"?>
<svg width="22px" height="22px" viewBox="0 0 22 22" version="1.1" xmlns="http://www.w3.org/2000/svg" xmlns:xlink="http://www.w3.org/1999/xlink">
    <!-- Generator: sketchtool 57.1 (101010) - https://sketch.com -->
    <title>FC8A9E5D-C12C-439F-A7E2-6680C8C41B23</title>
    <desc>Created with sketchtool.</desc>
    <g id="Page-1" stroke="none" stroke-width="1" fill="none" fill-rule="evenodd">
        <g id="Works-Copy-65" transform="translate(-422.000000, -350.000000)" fill="#8C94A8" fill-rule="nonzero">
            <g id="Group-7" transform="translate(405.000000, 332.000000)">
                <g id="magnifying-glass-(2)" transform="translate(17.000000, 18.000000)">
                    <path d="M21.804878,20.8780488 L16.4585366,15.5317073 C17.8926829,13.8829268 18.7609756,11.7317073 18.7609756,9.3804878 C18.7609756,4.20487805 14.5512195,0 9.3804878,0 C4.20487805,0 0,4.2097561 0,9.3804878 C0,14.5512195 4.2097561,18.7609756 9.3804878,18.7609756 C11.7317073,18.7609756 13.8829268,17.8926829 15.5317073,16.4585366 L20.8780488,21.804878 C21.004878,21.9317073 21.1756098,22 21.3414634,22 C21.5073171,22 21.6780488,21.9365854 21.804878,21.804878 C22.0585366,21.5512195 22.0585366,21.1317073 21.804878,20.8780488 Z M1.31219512,9.3804878 C1.31219512,4.93170732 4.93170732,1.31707317 9.37560976,1.31707317 C13.8243902,1.31707317 17.4390244,4.93658537 17.4390244,9.3804878 C17.4390244,13.8243902 13.8243902,17.4487805 9.37560976,17.4487805 C4.93170732,17.4487805 1.31219512,13.8292683 1.31219512,9.3804878 Z" id="Shape"></path>
                </g>
            </g>
        </g>
    </g>
</svg>