<svg width="14" height="14" xmlns="http://www.w3.org/2000/svg"><g fill="#00B0F5" fill-rule="nonzero"><path d="M2 10c-1.103 0-2 .897-2 2s.897 2 2 2 2-.897 2-2-.897-2-2-2zm0 3.5c-.827 0-1.5-.673-1.5-1.5s.673-1.5 1.5-1.5 1.5.673 1.5 1.5-.673 1.5-1.5 1.5zM7 10c-1.103 0-2 .897-2 2s.897 2 2 2 2-.897 2-2-.897-2-2-2zm0 3.5c-.827 0-1.5-.673-1.5-1.5s.673-1.5 1.5-1.5 1.5.673 1.5 1.5-.673 1.5-1.5 1.5zM12 10c-1.103 0-2 .897-2 2s.897 2 2 2 2-.897 2-2-.897-2-2-2zm0 3.5c-.827 0-1.5-.673-1.5-1.5s.673-1.5 1.5-1.5 1.5.673 1.5 1.5-.673 1.5-1.5 1.5zM2 5C.897 5 0 5.897 0 7s.897 2 2 2 2-.897 2-2-.897-2-2-2zm0 3.5C1.173 8.5.5 7.827.5 7S1.173 5.5 2 5.5s1.5.673 1.5 1.5S2.827 8.5 2 8.5zM7 5c-1.103 0-2 .897-2 2s.897 2 2 2 2-.897 2-2-.897-2-2-2zm0 3.5c-.827 0-1.5-.673-1.5-1.5S6.173 5.5 7 5.5s1.5.673 1.5 1.5S7.827 8.5 7 8.5zM12 5c-1.103 0-2 .897-2 2s.897 2 2 2 2-.897 2-2-.897-2-2-2zm0 3.5c-.827 0-1.5-.673-1.5-1.5s.673-1.5 1.5-1.5 1.5.673 1.5 1.5-.673 1.5-1.5 1.5zM2 0C.897 0 0 .897 0 2s.897 2 2 2 2-.897 2-2-.897-2-2-2zm0 3.5C1.173 3.5.5 2.827.5 2S1.173.5 2 .5s1.5.673 1.5 1.5S2.827 3.5 2 3.5zM7 0C5.897 0 5 .897 5 2s.897 2 2 2 2-.897 2-2-.897-2-2-2zm0 3.5c-.827 0-1.5-.673-1.5-1.5S6.173.5 7 .5s1.5.673 1.5 1.5S7.827 3.5 7 3.5zM12 4c1.103 0 2-.897 2-2s-.897-2-2-2-2 .897-2 2 .897 2 2 2zm0-3.5c.827 0 1.5.673 1.5 1.5s-.673 1.5-1.5 1.5-1.5-.673-1.5-1.5S11.173.5 12 .5z"/></g></svg>